Coordinates
version=1
nRows=6
nColumns=36
inDegrees=yes

Units are S.I. units (second, meters, Newtons, ...)
If the header above contains a line with 'inDegrees', this indicates whether rotational values are in degrees (yes) or radians (no).

endheader
time	pelvis_tilt	pelvis_list	pelvis_rotation	pelvis_tx	pelvis_ty	pelvis_tz	hip_flexion_r	hip_adduction_r	hip_rotation_r	knee_angle_r	knee_angle_r_beta	ankle_angle_r	subtalar_angle_r	mtp_angle_r	hip_flexion_l	hip_adduction_l	hip_rotation_l	knee_angle_l	knee_angle_l_beta	ankle_angle_l	subtalar_angle_l	mtp_angle_l	lumbar_extension	lumbar_bending	lumbar_rotation	arm_flex_r	arm_add_r	arm_rot_r	elbow_flex_r	pro_sup_r	arm_flex_l	arm_add_l	arm_rot_l	elbow_flex_l	pro_sup_l
      1.99000000	    -19.74939376	      5.19037424	     -5.71946397	     -0.31546776	      0.66668096	     -0.56216366	     80.12155490	     -0.34238272	      9.62231589	     98.04446275	      1.71119869	     36.33920616	     -8.58832221	     -7.50001050	     78.03090885	     -7.28941289	     -2.83571121	     95.91647461	      1.67405829	     32.66408427	    -17.96088353	     -7.50001050	    -16.34423108	     -2.18723471	      5.08782874	    127.83060129	     -0.36768008	     22.58580702	     93.76922107	    111.87669360	    126.50330173	     -5.73632073	     26.97733116	     92.74744923	    105.52423460
      2.00000000	    -19.86706037	      5.47881937	     -6.31205812	     -0.31074373	      0.67619037	     -0.56098574	     78.87094715	     -0.00110931	      9.88028744	     96.33013130	      1.68127796	     35.99755584	     -8.63627241	     -7.50001037	     76.51652352	     -7.56687467	     -3.43615445	     94.23738183	      1.64475259	     32.44368520	    -18.14672176	     -7.50001037	    -14.91017138	     -2.52188827	      6.11368064	    132.24870492	     -0.28847022	     22.82265980	     91.14357720	    111.59721279	    130.85131260	     -6.04830112	     27.73799504	     90.95308994	    105.13633325
      2.01000000	    -19.53978556	      5.74201658	     -6.81090653	     -0.30556518	      0.68753526	     -0.56000006	     76.92727111	      0.15363755	     10.14847210	     94.35121623	      1.64673938	     35.44116067	     -8.96098480	     -7.50001016	     74.32760703	     -7.57480574	     -3.99216473	     92.21404095	      1.60943863	     31.98523035	    -18.61600594	     -7.50001016	    -13.93772567	     -2.80138686	      6.91496412	    136.42223431	     -0.36273225	     23.90996003	     88.21286013	    111.44530604	    135.17899975	     -6.58747449	     29.36106086	     88.72649620	    104.69684180
      2.02000000	    -19.37395616	      5.98968222	     -7.32161205	     -0.30025510	      0.69902527	     -0.55919034	     75.10511578	      0.30835255	     10.44965859	     92.25600284	      1.61017100	     34.92710940	     -9.03936633	     -7.50001003	     72.30690640	     -7.58728119	     -4.54864235	     90.14763137	      1.57337298	     31.56572220	    -18.81678455	     -7.50001003	    -12.67554707	     -3.02525215	      7.86645303	    140.26688601	     -0.41217366	     24.92315720	     85.00388666	    111.20615046	    139.05043609	     -6.71587815	     30.61184900	     85.99309154	    104.32662946
      2.03000000	    -19.11435656	      6.24614334	     -7.73881399	     -0.29459400	      0.71140481	     -0.55866802	     73.12039110	      0.24435462	     10.69755560	     90.01443576	      1.57104828	     34.14723698	     -9.34977475	     -7.50000973	     70.06534263	     -7.44662324	     -5.13642028	     87.83527841	      1.53301481	     30.82527537	    -19.36938110	     -7.50000973	    -11.42730853	     -3.27896262	      8.61655521	    143.81682424	     -0.73806169	     26.52813397	     82.06547442	    110.62760939	    142.75073504	     -6.70159443	     32.33992011	     82.92220550	    103.67080268
      2.04000000	    -18.89909972	      6.36314907	     -8.17720508	     -0.28869136	      0.72442871	     -0.55809696	     71.06427997	      0.26268306	     10.88904995	     87.58915216	      1.52871909	     33.27903313	     -9.14106795	     -7.50000959	     67.80983362	     -7.39246116	     -5.58587499	     85.39125725	      1.49035859	     30.20585819	    -19.28559637	     -7.50000959	    -10.02237954	     -3.32206331	      9.45942117	    146.80255664	     -0.81479762	     27.81476581	     78.85434145	    110.18902567	    145.90556131	     -6.41139373	     33.63185101	     79.35714992	    103.16398819
